<svg width="90" height="90" viewBox="0 0 90 90" fill="none" xmlns="http://www.w3.org/2000/svg">
<rect x="0.5" y="0.5" width="89" height="89" rx="14.5" fill="white" stroke="#E6E6F1" stroke-dasharray="4 4"/>
<path d="M18.1521 54L21.9561 45.6H23.1441L26.9601 54H25.7001L22.3041 46.272H22.7841L19.3881 54H18.1521ZM19.7721 51.9L20.0961 50.94H24.8241L25.1721 51.9H19.7721ZM30.6145 54.072C29.9985 54.072 29.4465 53.936 28.9585 53.664C28.4785 53.392 28.0985 53.012 27.8185 52.524C27.5385 52.036 27.3985 51.468 27.3985 50.82C27.3985 50.172 27.5385 49.608 27.8185 49.128C28.0985 48.64 28.4785 48.26 28.9585 47.988C29.4465 47.716 29.9985 47.58 30.6145 47.58C31.1505 47.58 31.6345 47.7 32.0665 47.94C32.4985 48.18 32.8425 48.54 33.0985 49.02C33.3625 49.5 33.4945 50.1 33.4945 50.82C33.4945 51.54 33.3665 52.14 33.1105 52.62C32.8625 53.1 32.5225 53.464 32.0905 53.712C31.6585 53.952 31.1665 54.072 30.6145 54.072ZM30.7105 53.064C31.1105 53.064 31.4705 52.972 31.7905 52.788C32.1185 52.604 32.3745 52.344 32.5585 52.008C32.7505 51.664 32.8465 51.268 32.8465 50.82C32.8465 50.364 32.7505 49.972 32.5585 49.644C32.3745 49.308 32.1185 49.048 31.7905 48.864C31.4705 48.68 31.1105 48.588 30.7105 48.588C30.3025 48.588 29.9385 48.68 29.6185 48.864C29.2985 49.048 29.0425 49.308 28.8505 49.644C28.6585 49.972 28.5625 50.364 28.5625 50.82C28.5625 51.268 28.6585 51.664 28.8505 52.008C29.0425 52.344 29.2985 52.604 29.6185 52.788C29.9385 52.972 30.3025 53.064 30.7105 53.064ZM32.8825 54V52.284L32.9545 50.808L32.8345 49.332V45.096H33.9865V54H32.8825ZM35.3502 56.4C35.0862 56.4 34.8342 56.368 34.5942 56.304C34.3462 56.24 34.1382 56.144 33.9702 56.016L34.3422 55.128C34.5822 55.328 34.8942 55.428 35.2782 55.428C35.5822 55.428 35.8142 55.332 35.9742 55.14C36.1422 54.956 36.2262 54.68 36.2262 54.312V47.64H37.3782V54.288C37.3782 54.936 37.2022 55.448 36.8502 55.824C36.5062 56.208 36.0062 56.4 35.3502 56.4ZM36.8022 46.416C36.5782 46.416 36.3902 46.344 36.2382 46.2C36.0942 46.056 36.0222 45.88 36.0222 45.672C36.0222 45.456 36.0942 45.276 36.2382 45.132C36.3902 44.988 36.5782 44.916 36.8022 44.916C37.0262 44.916 37.2102 44.988 37.3542 45.132C37.5062 45.268 37.5822 45.44 37.5822 45.648C37.5822 45.864 37.5102 46.048 37.3662 46.2C37.2222 46.344 37.0342 46.416 36.8022 46.416ZM42.2524 54.072C41.7084 54.072 41.2284 53.972 40.8124 53.772C40.4044 53.572 40.0844 53.268 39.8524 52.86C39.6284 52.444 39.5164 51.924 39.5164 51.3V47.64H40.6684V51.168C40.6684 51.792 40.8164 52.26 41.1124 52.572C41.4164 52.884 41.8404 53.04 42.3844 53.04C42.7844 53.04 43.1324 52.96 43.4284 52.8C43.7244 52.632 43.9524 52.392 44.1124 52.08C44.2724 51.76 44.3524 51.376 44.3524 50.928V47.64H45.5044V54H44.4124V52.284L44.5924 52.74C44.3844 53.164 44.0724 53.492 43.6564 53.724C43.2404 53.956 42.7724 54.072 42.2524 54.072ZM51.0935 47.58C51.6135 47.58 52.0695 47.68 52.4615 47.88C52.8615 48.08 53.1735 48.384 53.3975 48.792C53.6215 49.2 53.7335 49.716 53.7335 50.34V54H52.5815V50.472C52.5815 49.856 52.4295 49.392 52.1255 49.08C51.8295 48.768 51.4095 48.612 50.8655 48.612C50.4575 48.612 50.1015 48.692 49.7975 48.852C49.4935 49.012 49.2575 49.248 49.0895 49.56C48.9295 49.872 48.8495 50.26 48.8495 50.724V54H47.6975V47.64H48.8015V49.356L48.6215 48.9C48.8295 48.484 49.1495 48.16 49.5815 47.928C50.0135 47.696 50.5175 47.58 51.0935 47.58ZM58.0494 54.072C57.4094 54.072 56.9134 53.9 56.5614 53.556C56.2094 53.212 56.0334 52.72 56.0334 52.08V46.248H57.1854V52.032C57.1854 52.376 57.2694 52.64 57.4374 52.824C57.6134 53.008 57.8614 53.1 58.1814 53.1C58.5414 53.1 58.8414 53 59.0814 52.8L59.4414 53.628C59.2654 53.78 59.0534 53.892 58.8054 53.964C58.5654 54.036 58.3134 54.072 58.0494 54.072ZM54.9534 48.588V47.64H59.0094V48.588H54.9534ZM64.7822 54V52.656L64.7222 52.404V50.112C64.7222 49.624 64.5782 49.248 64.2902 48.984C64.0102 48.712 63.5862 48.576 63.0182 48.576C62.6422 48.576 62.2742 48.64 61.9142 48.768C61.5542 48.888 61.2502 49.052 61.0022 49.26L60.5222 48.396C60.8502 48.132 61.2422 47.932 61.6982 47.796C62.1622 47.652 62.6462 47.58 63.1502 47.58C64.0222 47.58 64.6942 47.792 65.1662 48.216C65.6382 48.64 65.8742 49.288 65.8742 50.16V54H64.7822ZM62.6942 54.072C62.2222 54.072 61.8062 53.992 61.4462 53.832C61.0942 53.672 60.8222 53.452 60.6302 53.172C60.4382 52.884 60.3422 52.56 60.3422 52.2C60.3422 51.856 60.4222 51.544 60.5822 51.264C60.7502 50.984 61.0182 50.76 61.3862 50.592C61.7622 50.424 62.2662 50.34 62.8982 50.34H64.9142V51.168H62.9462C62.3702 51.168 61.9822 51.264 61.7822 51.456C61.5822 51.648 61.4822 51.88 61.4822 52.152C61.4822 52.464 61.6062 52.716 61.8542 52.908C62.1022 53.092 62.4462 53.184 62.8862 53.184C63.3182 53.184 63.6942 53.088 64.0142 52.896C64.3422 52.704 64.5782 52.424 64.7222 52.056L64.9502 52.848C64.7982 53.224 64.5302 53.524 64.1462 53.748C63.7622 53.964 63.2782 54.072 62.6942 54.072ZM68.0061 54V47.64H69.1101V49.368L69.0021 48.936C69.1781 48.496 69.4741 48.16 69.8901 47.928C70.3061 47.696 70.8181 47.58 71.4261 47.58V48.696C71.3781 48.688 71.3301 48.684 71.2821 48.684C71.2421 48.684 71.2021 48.684 71.1621 48.684C70.5461 48.684 70.0581 48.868 69.6981 49.236C69.3381 49.604 69.1581 50.136 69.1581 50.832V54H68.0061ZM27.8447 69V67.656L27.7847 67.404V65.112C27.7847 64.624 27.6407 64.248 27.3527 63.984C27.0727 63.712 26.6487 63.576 26.0807 63.576C25.7047 63.576 25.3367 63.64 24.9767 63.768C24.6167 63.888 24.3127 64.052 24.0647 64.26L23.5847 63.396C23.9127 63.132 24.3047 62.932 24.7607 62.796C25.2247 62.652 25.7087 62.58 26.2127 62.58C27.0847 62.58 27.7567 62.792 28.2287 63.216C28.7007 63.64 28.9367 64.288 28.9367 65.16V69H27.8447ZM25.7567 69.072C25.2847 69.072 24.8687 68.992 24.5087 68.832C24.1567 68.672 23.8847 68.452 23.6927 68.172C23.5007 67.884 23.4047 67.56 23.4047 67.2C23.4047 66.856 23.4847 66.544 23.6447 66.264C23.8127 65.984 24.0807 65.76 24.4487 65.592C24.8247 65.424 25.3287 65.34 25.9607 65.34H27.9767V66.168H26.0087C25.4327 66.168 25.0447 66.264 24.8447 66.456C24.6447 66.648 24.5447 66.88 24.5447 67.152C24.5447 67.464 24.6687 67.716 24.9167 67.908C25.1647 68.092 25.5087 68.184 25.9487 68.184C26.3807 68.184 26.7567 68.088 27.0767 67.896C27.4047 67.704 27.6407 67.424 27.7847 67.056L28.0127 67.848C27.8607 68.224 27.5927 68.524 27.2087 68.748C26.8247 68.964 26.3407 69.072 25.7567 69.072ZM31.0686 69V62.64H32.1726V64.368L32.0646 63.936C32.2406 63.496 32.5366 63.16 32.9526 62.928C33.3686 62.696 33.8806 62.58 34.4886 62.58V63.696C34.4406 63.688 34.3926 63.684 34.3446 63.684C34.3046 63.684 34.2646 63.684 34.2246 63.684C33.6086 63.684 33.1206 63.868 32.7606 64.236C32.4006 64.604 32.2206 65.136 32.2206 65.832V69H31.0686ZM38.6218 69.072C37.9738 69.072 37.3938 68.932 36.8818 68.652C36.3778 68.372 35.9818 67.988 35.6938 67.5C35.4058 67.012 35.2618 66.452 35.2618 65.82C35.2618 65.188 35.4058 64.628 35.6938 64.14C35.9818 63.652 36.3778 63.272 36.8818 63C37.3938 62.72 37.9738 62.58 38.6218 62.58C39.1978 62.58 39.7098 62.696 40.1578 62.928C40.6138 63.152 40.9658 63.488 41.2138 63.936L40.3378 64.5C40.1298 64.188 39.8738 63.96 39.5698 63.816C39.2738 63.664 38.9538 63.588 38.6098 63.588C38.1938 63.588 37.8218 63.68 37.4938 63.864C37.1658 64.048 36.9058 64.308 36.7138 64.644C36.5218 64.972 36.4258 65.364 36.4258 65.82C36.4258 66.276 36.5218 66.672 36.7138 67.008C36.9058 67.344 37.1658 67.604 37.4938 67.788C37.8218 67.972 38.1938 68.064 38.6098 68.064C38.9538 68.064 39.2738 67.992 39.5698 67.848C39.8738 67.696 40.1298 67.464 40.3378 67.152L41.2138 67.704C40.9658 68.144 40.6138 68.484 40.1578 68.724C39.7098 68.956 39.1978 69.072 38.6218 69.072ZM46.0193 62.58C46.5393 62.58 46.9953 62.68 47.3873 62.88C47.7873 63.08 48.0993 63.384 48.3233 63.792C48.5473 64.2 48.6593 64.716 48.6593 65.34V69H47.5073V65.472C47.5073 64.856 47.3553 64.392 47.0513 64.08C46.7553 63.768 46.3353 63.612 45.7913 63.612C45.3833 63.612 45.0273 63.692 44.7233 63.852C44.4193 64.012 44.1833 64.248 44.0153 64.56C43.8553 64.872 43.7753 65.26 43.7753 65.724V69H42.6233V60.096H43.7753V64.356L43.5473 63.9C43.7553 63.484 44.0753 63.16 44.5073 62.928C44.9393 62.696 45.4433 62.58 46.0193 62.58ZM50.7912 69V62.64H51.9432V69H50.7912ZM51.3672 61.416C51.1432 61.416 50.9552 61.344 50.8032 61.2C50.6592 61.056 50.5872 60.88 50.5872 60.672C50.5872 60.456 50.6592 60.276 50.8032 60.132C50.9552 59.988 51.1432 59.916 51.3672 59.916C51.5912 59.916 51.7752 59.988 51.9192 60.132C52.0712 60.268 52.1472 60.44 52.1472 60.648C52.1472 60.864 52.0752 61.048 51.9312 61.2C51.7872 61.344 51.5992 61.416 51.3672 61.416ZM55.8108 69L53.0268 62.64H54.2268L56.6988 68.4H56.1228L58.6428 62.64H59.7708L56.9868 69H55.8108ZM63.3941 69.072C62.7541 69.072 62.1861 68.932 61.6901 68.652C61.1941 68.372 60.8021 67.988 60.5141 67.5C60.2261 67.004 60.0821 66.444 60.0821 65.82C60.0821 65.188 60.2261 64.628 60.5141 64.14C60.8021 63.652 61.1941 63.272 61.6901 63C62.1861 62.72 62.7541 62.58 63.3941 62.58C64.0261 62.58 64.5901 62.72 65.0861 63C65.5901 63.272 65.9821 63.652 66.2621 64.14C66.5501 64.62 66.6941 65.18 66.6941 65.82C66.6941 66.452 66.5501 67.012 66.2621 67.5C65.9821 67.988 65.5901 68.372 65.0861 68.652C64.5901 68.932 64.0261 69.072 63.3941 69.072ZM63.3941 68.064C63.8021 68.064 64.1661 67.972 64.4861 67.788C64.8141 67.604 65.0701 67.344 65.2541 67.008C65.4381 66.664 65.5301 66.268 65.5301 65.82C65.5301 65.364 65.4381 64.972 65.2541 64.644C65.0701 64.308 64.8141 64.048 64.4861 63.864C64.1661 63.68 63.8021 63.588 63.3941 63.588C62.9861 63.588 62.6221 63.68 62.3021 63.864C61.9821 64.048 61.7261 64.308 61.5341 64.644C61.3421 64.972 61.2461 65.364 61.2461 65.82C61.2461 66.268 61.3421 66.664 61.5341 67.008C61.7261 67.344 61.9821 67.604 62.3021 67.788C62.6221 67.972 62.9861 68.064 63.3941 68.064Z" fill="#9393B2"/>
<path d="M48 19H40C36 19 34 20.7405 34 24.2214V35.5344C34 36.013 34.45 36.4046 35 36.4046H48C52 36.4046 54 34.6641 54 31.1832V24.2214C54 20.7405 52 19 48 19Z" stroke="#9393B2" stroke-width="1.5" stroke-linecap="round" stroke-linejoin="round"/>
<path d="M40 27.7023H47M43.5 30.7481V24.6565" stroke="#9393B2" stroke-width="1.5" stroke-miterlimit="10" stroke-linecap="round" stroke-linejoin="round"/>
</svg>
