<svg width="22" height="22" viewBox="0 0 22 22" fill="none" xmlns="http://www.w3.org/2000/svg">
<path d="M19.8642 13.1084L19.4975 17.6917C19.36 19.0942 19.25 20.1667 16.7658 20.1667H5.23416C2.74999 20.1667 2.63999 19.0942 2.50249 17.6917L2.13582 13.1084C2.06249 12.3475 2.30082 11.6417 2.73166 11.1009L2.74999 11.0825C3.25416 10.4684 4.01499 10.0834 4.86749 10.0834H17.1325C17.985 10.0834 18.7367 10.4684 19.2317 11.0642C19.2408 11.0734 19.25 11.0825 19.25 11.0917C19.6992 11.6325 19.9467 12.3384 19.8642 13.1084Z" stroke="#F8BD26" stroke-width="1.5" stroke-miterlimit="10"/>
<path d="M3.20837 10.4775V5.75667C3.20837 2.64001 3.98754 1.86084 7.10421 1.86084H8.26837C9.43254 1.86084 9.69837 2.20917 10.1384 2.79584L11.3025 4.35417C11.5959 4.73917 11.77 4.97751 12.5492 4.97751H14.8867C18.0034 4.97751 18.7825 5.75667 18.7825 8.87334V10.5142M8.64421 15.5833H13.3559" stroke="#F8BD26" stroke-width="1.5" stroke-miterlimit="10" stroke-linecap="round" stroke-linejoin="round"/>
</svg>
