<svg width="22" height="21" viewBox="0 0 22 21" fill="none" xmlns="http://www.w3.org/2000/svg">
<path d="M6.64583 1.89H6.41667C6.54271 1.89 6.64583 1.7955 6.64583 1.68V1.89H15.3542V1.68C15.3542 1.7955 15.4573 1.89 15.5833 1.89H15.3542V3.78H17.4167V1.68C17.4167 0.753375 16.5945 0 15.5833 0H6.41667C5.40547 0 4.58333 0.753375 4.58333 1.68V3.78H6.64583V1.89ZM21.0833 3.78H0.916667C0.409635 3.78 0 4.15538 0 4.62V5.46C0 5.5755 0.103125 5.67 0.229167 5.67H1.95937L2.66693 19.3988C2.71276 20.2939 3.52057 21 4.4974 21H17.5026C18.4823 21 19.2872 20.2965 19.3331 19.3988L20.0406 5.67H21.7708C21.8969 5.67 22 5.5755 22 5.46V4.62C22 4.15538 21.5904 3.78 21.0833 3.78ZM17.282 19.11H4.71797L4.02474 5.67H17.9753L17.282 19.11Z" fill="#9393B2"/>
</svg>
