<svg width="23" height="20" viewBox="0 0 23 20" fill="none" xmlns="http://www.w3.org/2000/svg">
<path d="M6.00238 18.9832C4.63643 18.8783 3.33854 18.3445 2.29403 17.4581C1.24953 16.5716 0.511815 15.3778 0.186233 14.0471C-0.13935 12.7163 -0.0361558 11.3168 0.481081 10.0482C0.998318 8.77961 1.90315 7.70689 3.06638 6.98321C3.31389 5.05329 4.25617 3.27971 5.71689 1.99436C7.17761 0.709017 9.05666 0 11.0024 0C12.9481 0 14.8271 0.709017 16.2879 1.99436C17.7486 3.27971 18.6909 5.05329 18.9384 6.98321C20.1016 7.70689 21.0064 8.77961 21.5237 10.0482C22.0409 11.3168 22.1441 12.7163 21.8185 14.0471C21.4929 15.3778 20.7552 16.5716 19.7107 17.4581C18.6662 18.3445 17.3683 18.8783 16.0024 18.9832V19.0022H6.00238V18.9832ZM12.0024 11.0022H15.0024L11.0024 6.00221L7.00238 11.0022H10.0024V15.0022H12.0024V11.0022Z" fill="#0071CE"/>
</svg>
